<?xml version="1.0" standalone="no"?>
<!DOCTYPE svg PUBLIC "-//W3C//DTD SVG 1.1//EN" "http://www.w3.org/Graphics/SVG/1.1/DTD/svg11.dtd">
<!--Generator: Xara Designer (www.xara.com), SVG filter version: 6.1.0.17-->
<svg stroke-width="0.501" stroke-linejoin="bevel" fill-rule="evenodd" xmlns:xlink="http://www.w3.org/1999/xlink" xmlns="http://www.w3.org/2000/svg" version="1.1" overflow="visible" width="223.288pt" height="36.619pt" viewBox="0 0 223.288 36.619">
 <defs>
	</defs>
 <g id="Document" fill="none" stroke="black" font-family="Times New Roman" font-size="16" transform="scale(1 -1)">
  <g id="Spread" transform="translate(0 -36.619)">
   <g id="Layer 1">
    <g id="Group" fill-rule="evenodd" stroke-linejoin="miter" stroke="none" stroke-width="1.712" stroke-miterlimit="79.8403193612775">
     <g id="Group_1" fill="#ffffff">
      <path d="M 29.132,30.959 L 29.772,31.082 C 32.051,31.522 34.299,31.794 36.627,31.794 C 43.12,31.794 48.603,29.755 51.275,24.931 C 52.842,30.916 59.522,31.992 65.659,31.992 C 67.988,31.992 70.31,31.872 72.626,31.623 L 74.429,31.428 L 74.429,19.297 L 72.41,19.297 C 72.274,19.297 72.125,19.305 71.97,19.318 C 73.883,18.014 74.985,16.009 74.985,13.374 C 74.985,10.187 73.8,7.464 70.983,5.825 C 69,4.671 66.743,4.339 64.499,4.101 C 63.706,4.004 62.884,4.009 62.085,4.009 C 59.151,4.009 56.105,4.201 53.176,4.453 L 51.33,4.612 L 51.33,10.492 C 48.547,5.772 42.687,4.009 36.507,4.009 C 34.227,4.009 32.146,4.243 29.917,4.604 L 28.056,4.604 L 28.056,10.351 C 26.101,6.629 22.677,4.088 17.125,4.088 C 6.011,4.088 2.875,14.206 2.875,23.421 C 2.875,25.377 2.985,27.56 3.298,29.5 L 3.572,31.197 L 16.648,31.198 L 16.257,28.847 C 15.914,26.782 15.728,24.473 15.728,22.388 C 15.728,21.207 15.782,19.887 16.059,18.736 C 16.121,18.478 16.385,17.566 16.637,17.421 C 16.651,17.417 16.674,17.418 16.688,17.418 C 16.706,17.418 16.741,17.418 16.759,17.424 C 16.984,17.549 17.231,18.368 17.287,18.593 C 17.556,19.671 17.607,20.923 17.607,22.031 C 17.607,24.391 17.298,26.555 16.99,28.873 L 16.718,30.917 L 18.768,31.145 C 18.887,31.159 19.006,31.172 19.125,31.185 L 19.161,31.189 L 28.913,31.918 L 29.132,30.959 Z M 52.975,16.075 L 53.498,15.991 C 53.323,16.146 53.157,16.308 53,16.475 C 52.993,16.341 52.985,16.207 52.975,16.075 Z M 104.311,5.417 L 104.311,2.873 L 92.572,2.873 L 92.488,4.727 C 85.173,5.447 79.225,9.063 79.225,17.638 C 79.225,27.813 86.463,31.775 95.486,31.775 C 97.845,31.775 100.093,31.485 102.407,31.076 L 104.075,30.781 L 104.075,18.725 L 101.637,19.243 C 100.08,19.571 98.248,19.751 96.666,19.751 C 96.488,19.751 96.311,19.748 96.134,19.743 C 95.176,19.713 93.217,19.545 92.54,18.757 C 92.363,18.551 92.296,18.301 92.278,18.039 L 93.422,18.277 C 94.653,18.534 95.962,18.595 97.217,18.595 C 97.553,18.595 97.889,18.59 98.225,18.581 C 99.216,18.555 100.208,18.499 101.196,18.424 C 101.517,18.4 101.837,18.374 102.158,18.344 C 102.921,18.274 103.81,18.183 104.165,17.368 L 108.74,31.287 L 123.426,31.287 L 126.662,19.591 L 126.662,30.579 L 139.417,31.381 L 140.97,26.633 L 142.118,31.287 L 155.021,31.287 L 155.021,31.252 L 174.141,31.252 L 174.141,21.315 L 172.95,21.315 L 172.69,14.767 L 174.444,14.767 L 175.093,5.527 L 155.021,5.527 L 155.021,5.417 L 119.14,5.417 L 118.575,7.982 L 113.821,7.982 L 113.187,5.417 L 104.311,5.417 Z M 40.56,18.239 C 40.512,19.149 40.201,19.561 39.44,19.72 L 39.44,16.326 C 39.515,16.354 39.587,16.385 39.657,16.419 C 40.29,16.728 40.489,17.209 40.528,17.897 L 40.53,17.939 L 40.56,18.239 Z" marker-start="none" marker-end="none"/>
     </g>
     <path d="M 14.265,29.179 C 14.265,29.179 13.709,25.843 13.709,22.388 C 13.709,18.894 14.265,15.399 16.688,15.399 C 19.07,15.399 19.626,18.655 19.626,22.031 C 19.626,25.247 19.07,28.543 18.991,29.139 C 18.991,29.139 18.991,29.139 19.348,29.179 L 27.331,29.775 C 27.331,29.775 28.243,25.764 28.243,21.038 C 28.243,14.327 26.377,6.106 17.125,6.106 C 6.641,6.107 4.894,16.59 4.894,23.421 C 4.894,26.717 5.291,29.179 5.291,29.179 L 14.265,29.179 Z M 163.331,20.622 L 170.914,20.916 L 170.693,15.35 L 163.331,15.35 L 163.331,12.748 L 172.562,12.748 L 172.927,7.546 L 155.418,7.546 L 154.649,29.233 L 172.122,29.233 L 172.122,23.334 L 163.331,23.334 L 163.331,20.622 Z M 128.681,28.683 L 137.984,29.268 L 141.243,19.307 L 143.699,29.268 L 153.002,29.268 L 153.002,7.436 L 146.374,7.436 L 146.741,15.754 L 145.824,15.754 L 143.405,7.436 L 138.388,7.436 L 136.152,15.754 L 135.53,15.754 L 135.53,7.436 L 128.681,7.436 L 128.681,28.683 Z M 118.263,16.559 L 116.909,23.665 L 115.882,23.665 L 114.234,16.559 L 118.263,16.559 Z M 103.025,7.436 L 110.201,29.268 L 121.89,29.268 L 127.932,7.436 L 120.763,7.436 L 120.198,10.001 L 112.241,10.001 L 111.606,7.436 L 103.025,7.436 Z M 102.292,16.301 L 102.292,4.892 L 94.502,4.892 L 94.423,6.623 C 88.522,6.818 81.243,8.786 81.243,17.638 C 81.243,27.79 89.27,29.756 95.486,29.756 C 98.279,29.757 100.718,29.325 102.056,29.088 L 102.056,21.218 C 102.056,21.218 99.459,21.77 96.666,21.77 C 93.559,21.77 90.254,21.063 90.254,17.874 C 90.254,14.254 92.967,13.94 93.754,13.901 L 93.992,13.902 L 93.833,16.301 C 94.777,16.497 95.917,16.576 97.217,16.576 C 99.577,16.576 102.371,16.301 102.292,16.301 L 102.292,16.301 Z M 72.41,21.316 C 72.291,21.316 69.67,21.673 67.168,21.673 C 64.984,21.673 62.84,21.395 62.84,20.244 C 62.84,19.807 62.84,19.33 64.349,19.172 C 66.811,19.092 72.966,18.894 72.966,13.374 C 72.966,7.099 67.645,6.465 64.269,6.106 C 63.634,6.028 62.84,6.027 62.085,6.027 C 58.432,6.028 53.349,6.465 53.349,6.465 L 53.349,13.97 C 53.349,13.97 57.797,13.255 60.815,13.255 C 62.324,13.255 63.476,13.453 63.555,13.97 C 63.555,15.478 61.808,15.121 61.053,15.359 C 60.378,15.558 52.951,15.478 52.951,22.07 C 52.951,27.034 55.93,29.973 65.659,29.973 C 67.566,29.973 69.829,29.893 72.41,29.615 L 72.41,21.316 Z M 37.738,14.049 C 39.009,14.049 42.344,14.287 42.543,17.782 L 42.583,18.179 C 42.504,20.998 40.597,21.673 39.168,21.793 L 38.89,21.793 C 38.136,21.793 37.5,21.634 37.421,21.634 L 37.421,14.049 L 37.738,14.049 Z M 30.154,29.1 C 31.385,29.338 33.767,29.775 36.627,29.775 C 42.9,29.775 51.001,27.789 51.001,17.345 C 51.001,7.815 42.623,6.027 36.507,6.027 C 32.973,6.028 30.154,6.623 30.074,6.623 L 30.074,11.468 L 30.154,29.1 Z" fill="#40c7ff" marker-start="none" marker-end="none"/>
    </g>
   </g>
  </g>
 </g>
</svg>
