<?xml version="1.0" encoding="UTF-8"?>
<!DOCTYPE svg PUBLIC "-//W3C//DTD SVG 1.1//EN" "http://www.w3.org/Graphics/SVG/1.1/DTD/svg11.dtd">
<!-- Creator: CorelDRAW -->
<svg xmlns="http://www.w3.org/2000/svg" xml:space="preserve" width="80.2482mm" height="80.5408mm" style="shape-rendering:geometricPrecision; text-rendering:geometricPrecision; image-rendering:optimizeQuality; fill-rule:evenodd; clip-rule:evenodd"
viewBox="0 0 56.1047 56.3092"
 xmlns:xlink="http://www.w3.org/1999/xlink">
 <defs>
  <style type="text/css">
   <![CDATA[
    .fil0 {fill:none}
    .fil1 {fill:white}
    .fil2 {fill:#1F87C8}
    .fil5 {fill:#D07241}
    .fil3 {fill:#E29E2F}
    .fil4 {fill:#E9B232}
   ]]>
  </style>
 </defs>
 <g id="Layer_x0020_1">
  <metadata id="CorelCorpID_0Corel-Layer"/>
  <rect class="fil0" x="0.0141896" width="56.0694" height="56.3092"/>
  <path class="fil1" d="M29.2308 41.4227l0.00153811 -5.21677 1.57188 -0.101585c-0.565534,-0.261059 -0.971734,-0.684527 -0.971734,-1.37073l0 -1.63697c-0.0860641,0.165067 -0.173666,0.31678 -0.262107,0.452203 -0.614264,0.940412 -1.44848,1.68842 -2.41434,2.18194l0.507575 0.000699139 1.56719 5.6912zm0.816525 8.61822l-4.86391 0.00174785 -0.233792 -1.32997 -2.49789 -0.000769053 -0.245608 1.32829 -5.10337 -0.00811002 0 1.81944 -7.80282 0 0 -1.35948c-0.245887,0.0168493 -0.50345,0.0416687 -0.672223,0.0360756 -0.345445,-0.0115358 -0.813169,-0.119902 -1.15652,-0.188838 -0.3416,-0.0685157 -0.76353,-0.141506 -1.09157,-0.250292 -1.28446,-0.425636 -2.25647,-0.813449 -3.34937,-1.63235 -2.44251,-1.83 -3.03028,-4.38766 -3.03028,-7.3253 0,-5.83746 4.89712,-9.01512 10.3245,-9.03008l1.29355 -0.0826383 5.48433 0.708438 0.00293639 7.73905 -5.40099 -0.449337 -0.00999769 -0.00104871c-0.401656,-0.0402704 -0.831137,0.00524355 -1.22272,0.0985087 -0.419134,0.099907 -1.70254,0.57665 -1.70254,1.13785l0 0.84498c0,0.12214 0.0680263,0.28399 0.17094,0.441576l0.00195759 -0.989842 2.19306 -0.273503 2.36833 0c0.392357,0 0.777932,-0.0104172 1.17106,0.00776045 0.880636,0.04062 1.98185,0.205407 2.33792,1.15736 0.0808904,0.216314 0.0904686,0.270008 0.0904686,0.501633l0 0.936008 3.06992 -8.15665 0.111443 0.000139828c-2.99903,-1.65703 -4.22049,-5.84872 -4.22049,-9.07574l0 -2.05211c0,-0.309159 -0.00622234,-0.613355 0.0107667,-0.922864 0.0436263,-0.794432 0.233163,-1.68304 1.03501,-2.05582 0.19492,-0.0906085 0.40634,-0.136612 0.621185,-0.136612l5.9359 0 -0.561339 4.35221 0.036565 0.533234 0 0.0405501c0,0.459614 0.0364951,0.932862 0.109275,1.3866 0.0402005,0.250222 0.184223,0.946355 0.369985,1.24629 0.292031,-0.249733 0.4141,-1.09828 0.4141,-1.42582l0 -1.04556 -0.241902 -3.50618 0.0107667 -1.15589 1.45071 -0.41396 5.23935 -0.36565 0.0579587 0.520649 3.6925 -0.425846 0.217362 0.0580286c1.08234,0.288814 2.1351,1.24006 3.20611,1.6118 0.574902,0.199604 1.14554,0.408647 1.73533,0.561759 0.688932,0.17891 1.62578,0.128642 2.27032,0.437661l0.291611 0.139828 0.180028 0.268749c0.116686,0.174156 0.226451,0.350409 0.329225,0.528829 0.0264275,-0.0866933 0.0506876,-0.173177 0.0708228,-0.259451l0.166815 -0.715359 2.59877 -0.611188 3.27176 -1.88649 6.56688 0.0936847 -0.00153811 6.81675 -1.1303 -0.066628c0.814707,0.549034 1.37213,1.36011 1.37213,2.55305l0 1.56922c0,1.33067 -1.26474,2.83403 -2.45768,3.40327l2.33687 0 0 5.62702 -0.603847 0 0 3.42648 0.841135 0 0.274552 2.45342 -0.0508973 2.69078 -10.8479 -0.000699139 0 0.121371 -5.49433 0 -0.000139828 0.000489398 -3.92637 -0.00216733 0 0.00167793 -5.41386 0zm12.3465 -14.1976l-0.000209742 -2.42965c-0.86141,1.10464 -2.1235,1.91424 -3.51192,2.42965l3.51213 0zm-4.79218 0.385366c-0.334119,0.0785134 -0.670545,0.141226 -1.00592,0.188069l0.545399 1.69898 0.460523 -1.88705zm-1.53657 -8.24104l0 1.64165c0.184433,-0.110534 0.356771,-0.252879 0.410185,-0.368307l0 -0.442346c0,-0.476533 -0.0758566,-0.73962 -0.410185,-0.830997z"/>
  <path class="fil2" d="M10.1215 43.6664l0.135983 0.72312 -0.739899 -0.119553c-0.959359,-0.0798417 -1.93242,-1.22126 -1.93242,-2.17286l0 -0.84498c0,-1.55475 2.42392,-2.59514 4.22728,-2.41427l4.10849 0.341809 -0.0020275 -5.41176 -4.33935 -0.5605 -1.2165 0.0776744c-5.0331,0 -9.17921,2.862 -9.17921,7.8463 0,3.13242 0.739689,5.01681 2.55626,6.3779 0.979215,0.733677 1.7719,1.04507 3.01196,1.45603 0.215894,0.0715919 1.69199,0.372222 1.91501,0.379633 0.566163,0.0189467 1.81671,-0.252529 1.81671,0.35712l0 0.965651 5.43511 0 0 -7.72563c0,-0.567771 -1.79972,-0.482896 -2.4156,-0.482896l-2.29479 0 -1.08485 0.135283 -0.00216733 1.07192zm15.339 -21.0041l-0.481008 0.137241 -0.00209742 0.224913 0.241553 3.50066 0 1.08639c0,1.16036 -0.514357,2.65575 -1.69094,2.65575 -1.23412,0 -1.57013,-2.45657 -1.57013,-3.86282l-0.0418085 -0.6093 0.404103 -3.13284 -4.58957 0c-0.545259,0 -0.483105,1.36626 -0.483105,1.93144l0 2.05211c0,3.96328 1.92655,8.57061 5.67666,8.57061l1.44932 0c1.96053,0 3.4197,-1.11156 4.20581,-2.31499 0.603847,-0.924402 1.50469,-3.68013 1.44512,-5.29906l-0.581195 -5.2181 -3.98272 0.277978zm9.42076 4.10423l0.845469 0c1.26481,0 1.93242,0.748848 1.93242,2.05211l0 0.482896c0,0.86924 -1.25412,1.68996 -2.05323,1.68996l-0.724658 0 0 -4.22497zm6.28051 -1.8107c-0.297903,-0.142834 -1.5918,-0.238756 -2.05603,-0.359288 -0.651808,-0.169262 -1.24838,-0.388722 -1.82601,-0.589235 -0.977607,-0.339362 -2.45195,-1.4073 -3.12313,-1.58642l-3.14025 0.362154 0 11.9506c0,0.532395 1.94186,0.603497 2.53634,0.603497l1.57013 0c3.54464,0 7.24679,-1.95871 7.24679,-5.31129l0 -1.2072c0,-1.62473 -0.554837,-2.88821 -1.20783,-3.86282zm4.58964 -0.603567l-2.05323 0.482896c-0.0826383,0.354324 -0.362364,1.07332 -0.362364,1.32788l0 0.724239c0,2.65988 2.75342,3.6214 5.43504,3.6214 0.090189,0.134514 0.362364,0.40606 0.362364,0.482826 0,0.282522 -0.200373,0.482826 -0.483105,0.482826l-1.57369 0.0390819 -3.49905 -0.280495 0.00034957 3.97629 5.43469 0.248754c0.598743,0.031671 2.83403,-0.556934 3.3358,-0.770382 0.734726,-0.312585 1.85775,-1.4554 1.85775,-2.36826l0 -1.56922c0,-2.92177 -5.43511,-2.12154 -5.43511,-3.01784 0,-0.521069 0.864486,-0.84498 1.44939,-0.84498l1.20972 -0.0286647 2.53445 0.149406 0.000978795 -4.39402 -5.07372 -0.0723609 -3.14025 1.81063zm-0.704733 24.3835l9.52158 0.000629225 0.0274762 -1.45197 -0.148218 -1.32445 -4.95193 0 0 -1.44855 3.98572 0 0 -3.01784 -0.726266 -0.0290143 -3.25946 0.149686 0 -1.44848 4.58957 0 0 -3.25932 -9.41391 -0.000139828 0.375438 11.8294zm-21.6016 -8.68191l0.324471 -0.00880916c0.46283,0 0.952508,3.24764 0.966281,3.86282l-2.18369 -0.00223725 0.892941 -3.85177zm-1.97828 7.47394l4.4768 0.00146819 0.233652 1.32927 3.87281 -0.00139828 -3.28868 -11.9429 -5.76972 -0.00776045 -4.49428 11.941 4.72402 0.00748079 0.245398 -1.32711zm18.3664 -3.13711l0.480938 -0.137171c0.00223725,0.652647 0.147449,1.77029 -0.118574,2.18936l0 2.41427 3.50262 0 0 -11.8299 -5.07275 0 -1.20783 4.94921 0 0.241413 -0.241553 -0.120671 -1.62235 -5.05324 -0.672432 -0.0167094 -4.4654 0.288605 -0.00342578 11.5413 3.86491 0 0 -4.46645 0.362364 0 1.09268 4.46491 2.7723 0.00153811 1.3285 -4.46645z"/>
  <path class="fil1" d="M53.5214 15.4541c-0.00838967,0.0555117 -0.0153112,0.10543 -0.0208344,0.141576 -0.0428572,0.280005 -0.0864136,0.557773 -0.168143,0.829809 -0.224214,0.746191 -0.571896,1.71653 -0.94237,2.39616 -0.472059,0.866164 -1.00166,1.58313 -1.61312,2.34946 -0.313214,0.392637 -0.621815,0.782687 -0.90175,1.20042l-0.153391 0.228968 -3.52982 2.03526 -2.32876 0.547706 -2.94373 0.140038 -0.220509 -0.10571c-0.220159,-0.0604056 -0.551551,-0.0911678 -0.773668,-0.120951 -0.363483,-0.0487999 -0.76325,-0.0916572 -1.11708,-0.183524 -0.653416,-0.169681 -1.28012,-0.395713 -1.91669,-0.616641 -0.537359,-0.1866 -1.06933,-0.482756 -1.56321,-0.764299 -0.339013,-0.193312 -1.13093,-0.700258 -1.47714,-0.796739l-0.291821 -0.0778841 -2.84997 -2.71273 -0.0727105 -0.108506c-0.872176,-1.30187 -1.99122,-2.53242 -2.12874,-4.18204 -0.0441157,-1.2365 0.56868,-1.59718 1.83825,-1.08213 0.131718,0.0881615 0.658519,0.510092 0.790936,0.524285l0.355512 0c0.193452,-0.0262177 0.58476,-0.367538 0.66621,-0.529388 0.101165,-0.201072 0.0966211,-0.808834 0.104661,-1.03913 0.013843,-0.394035 0.0427873,-0.781708 0.141366,-1.16519 0.387113,-1.50532 0.943209,-3.00546 1.85328,-4.27789 1.78029,-2.48929 5.00612,-4.45617 8.11149,-4.45617l1.81168 0c2.79516,0 6.139,2.0791 7.6546,4.36878 0.629645,0.951249 1.29264,1.54167 2.05232,2.35323 1.24454,1.32948 1.78476,2.69218 2.19537,4.45373 0.133466,1.3671 -0.345305,1.9455 -1.8114,1.25258 -0.112631,-0.0753672 -0.480169,-0.401586 -0.750806,-0.603078z"/>
  <g id="_177260104">
   <path id="_109962208" class="fil3" d="M31.6202 19.1775l7.24679 -7.2428c0.499675,-0.334398 1.1949,-1.5021 2.24368,-2.22389 0.801214,-0.551551 2.27975,-1.03536 3.55373,-1.03536l1.08702 0c4.96109,0 6.74229,2.07721 8.45455,5.31136 -0.512749,-0.136822 -0.21135,-0.241413 -0.603917,-0.241413l-0.724658 0c-0.91832,0 -1.66612,3.13564 -2.09196,3.94482 -0.906784,1.72303 -2.04386,2.26011 -2.73923,3.29798l-2.29479 2.53494 3.14025 -1.81063c0.826383,-1.23342 1.61795,-1.91445 2.45887,-3.45745 0.266722,-0.489328 0.672432,-1.58572 0.848056,-2.17027 0.233233,-0.776324 0.0864136,-1.97724 1.04109,-1.97724 0.75514,0 1.23559,0.660966 1.69094,0.965721 -0.937616,-4.02243 -2.32296,-3.76494 -4.08193,-6.42229 -1.09639,-1.6564 -3.98873,-3.83835 -6.66741,-3.83835l-1.81168 0c-3.06104,0 -5.8455,2.13902 -7.14856,3.96097 -0.778282,1.08821 -1.29292,2.41902 -1.66961,3.88407 -0.205337,0.798627 0.00762062,1.76043 -0.335098,2.4416 -0.2519,0.500514 -1.03536,1.18113 -1.71688,1.18113l-0.362364 0c-0.60147,0 -1.07591,-0.474366 -1.44939,-0.724308 0.110534,1.32655 1.32955,2.72147 1.93249,3.6214z"/>
   <path id="_109962112" class="fil4" d="M45.0267 12.4176c0,-0.648242 0.680053,-1.32788 1.32864,-1.32788 0.847707,0 1.44932,0.540155 1.44932,1.32788 0,0.692567 -0.519461,1.32781 -1.20776,1.32781l-0.362364 0c-0.668168,0 -1.20783,-0.696063 -1.20783,-1.32781zm-6.1597 -0.482896c-0.278607,1.19511 -0.845469,1.6952 -0.845469,3.50073l0 0.241413c0,3.38411 3.18318,6.39775 6.64287,6.39775 1.93683,0 2.26165,-0.787441 3.38181,-1.08639 0.695364,-1.03787 1.83244,-1.57495 2.73923,-3.29798 0.425846,-0.809184 1.17365,-3.94482 2.09196,-3.94482l0.724658 0c0.392567,0 0.0911678,0.104591 0.603917,0.241413 -1.71226,-3.23415 -3.49346,-5.31136 -8.45455,-5.31136l-1.08702 0c-1.27397,0 -2.75251,0.483804 -3.55373,1.03536 -1.04878,0.721792 -1.744,1.88949 -2.24368,2.22389z"/>
   <path id="_109962016" class="fil5" d="M31.6202 19.1775l2.53641 2.41427c0.671174,0.17912 2.14552,1.24705 3.12313,1.58642 0.577629,0.200513 1.1742,0.419973 1.82601,0.589235 0.464229,0.120532 1.75813,0.216454 2.05603,0.359288l2.53641 -0.120671 2.05323 -0.482896 2.29479 -2.53494c-1.12016,0.298952 -1.44498,1.08639 -3.38181,1.08639 -3.45969,0 -6.64287,-3.01364 -6.64287,-6.39775l0 -0.241413c0,-1.80553 0.566862,-2.30562 0.845469,-3.50073l-7.24679 7.2428z"/>
   <path id="_177260392" class="fil0" d="M44.1813 4.81267c2.67868,0 5.57102,2.18194 6.66741,3.83835 1.75896,2.65736 3.14431,2.39987 4.08193,6.42229 -0.455349,-0.304755 -0.935798,-0.965721 -1.69094,-0.965721 -0.954675,0 -0.807856,1.20091 -1.04109,1.97724 -0.175624,0.58455 -0.581334,1.68094 -0.848056,2.17027 -0.840925,1.543 -1.63249,2.22403 -2.45887,3.45745l-3.14025 1.81063 -2.05323 0.482896 -2.53641 0.120671c-0.297903,-0.142834 -1.5918,-0.238756 -2.05603,-0.359288 -0.651808,-0.169262 -1.24838,-0.388722 -1.82601,-0.589235 -0.977607,-0.339362 -2.45195,-1.4073 -3.12313,-1.58642l-2.53641 -2.41427c-0.602938,-0.899932 -1.82196,-2.29486 -1.93249,-3.6214 0.37348,0.249942 0.847916,0.724308 1.44939,0.724308l0.362364 0c0.681521,0 1.46498,-0.680612 1.71688,-1.18113 0.342718,-0.681172 0.12976,-1.64298 0.335098,-2.4416 0.376696,-1.46505 0.891333,-2.79586 1.66961,-3.88407 1.30306,-1.82196 4.08752,-3.96097 7.14856,-3.96097l1.81168 0z"/>
  </g>
 </g>
</svg>
